<?xml version="1.0" encoding="UTF-8" standalone="no" ?>
<!DOCTYPE svg PUBLIC "-//W3C//DTD SVG 1.1//EN" "http://www.w3.org/Graphics/SVG/1.1/DTD/svg11.dtd">
<svg xmlns="http://www.w3.org/2000/svg" xmlns:xlink="http://www.w3.org/1999/xlink" version="1.1" width="180" height="180" viewBox="0 0 180 180" xml:space="preserve">
<desc>Created with Fabric.js 5.2.4</desc>
<defs>
</defs>
<rect x="0" y="0" width="70%" height="70%" fill="transparent"></rect>
<g transform="matrix(1 0 0 1 90 90)" id="fda96027-cfd9-46e6-9712-62b781020fde"  >
<rect style="stroke: none; stroke-width: 1; stroke-dasharray: none; stroke-linecap: butt; stroke-dashoffset: 0; stroke-linejoin: miter; stroke-miterlimit: 4; fill: rgb(255,255,255); fill-rule: nonzero; opacity: 1; visibility: hidden;" vector-effect="non-scaling-stroke"  x="-90" y="-90" rx="0" ry="0" width="180" height="180" />
</g>
<g transform="matrix(0 0 0 0 0 0)" id="4a92dc2d-9502-439a-8e16-bd50835149b9"  >
</g>
<g transform="matrix(0.17 0 0 0.17 112.5 112.5)"  >
<rect style="stroke: none; stroke-width: 1; stroke-dasharray: none; stroke-linecap: butt; stroke-dashoffset: 0; stroke-linejoin: miter; stroke-miterlimit: 4; fill: rgb(74,173,55); fill-rule: nonzero; opacity: 1;" vector-effect="non-scaling-stroke"  x="-1500" y="-1500" rx="0" ry="0" width="3000" height="3000" />
</g>
<g transform="matrix(0.08 0 0 0.08 90 90)"  >
<path style="stroke: none; stroke-width: 1; stroke-dasharray: none; stroke-linecap: butt; stroke-dashoffset: 0; stroke-linejoin: miter; stroke-miterlimit: 4; fill: rgb(255,255,255); fill-rule: nonzero; opacity: 1;" vector-effect="non-scaling-stroke"  transform=" translate(-872.12, -1637.09)" d="M 1423.25 1752.55 C 1420.5 1718.37 1417.65 1689.47 1414.25 1661.61 C 1402.48 1553.77 1382.57 1418.53 1355.08 1259.6699999999998 C 1339.08 1168.58 1326.29 1101.8999999999999 1324.6 1093.4399999999998 C 1295.87 925.4399999999998 1179.2199999999998 816.8799999999999 1027.4299999999998 816.8799999999999 C 979.4247153980486 816.9246502661558 932.3472532689367 830.1075846403699 891.3 855 C 851.2823941086498 879.415183749236 818.0385749446265 913.4911299548081 794.6199999999999 954.1 C 771.1733451961977 913.4691978437951 737.8816376718326 879.3899889225618 697.8099999999998 855 C 656.7097734148216 830.1017572223018 609.5836052717946 816.9162509756507 561.5299999999999 816.87 C 489.04999999999995 816.87 420.75 846.3100000000001 369.21999999999997 899.76 C 317.68999999999994 953.2099999999999 289.45 1023.67 289.45 1098.38 C 289.39 1099.38 283.15 1212.0300000000002 286.63 1358.38 L 285.63 1612.5400000000002 L 387.56 1612.5400000000002 L 387.41 1611.5400000000002 C 354.04 1394.0600000000002 366.41 1130.5400000000002 367.91 1101.17 L 367.91 1100.41 C 367.91 989.1500000000001 454.75 898.6400000000001 561.49 898.6400000000001 C 668.23 898.6400000000001 755.33 989.1500000000001 755.33 1100.41 L 755.33 1260.5600000000002 L 833.83 1260.5600000000002 L 833.83 1100.49 C 833.83 989.23 920.6700000000001 898.72 1027.42 898.72 C 1140.88 898.72 1225.27 979.13 1247.64 1108.57 L 1248.3500000000001 1112.35 C 1257.2400000000002 1159.35 1266.2300000000002 1209.04 1275.0500000000002 1259.9499999999998 C 1287.16 1328.6699999999998 1317.2900000000002 1505.37 1335.5000000000002 1661.7899999999997 C 1339.8900000000003 1701.3599999999997 1342.9000000000003 1732.5199999999998 1344.9700000000003 1759.8799999999997 L 1378.7800000000002 2104.5599999999995 C 1378.7800000000002 2104.6399999999994 1378.7800000000002 2104.9799999999996 1378.8500000000001 2105.5599999999995 C 1381.5000000000002 2141.2599999999993 1389.41 2321.0399999999995 1284.5900000000001 2354.2599999999993 C 1149.93 2396.8499999999995 1046.14 2388.479999999999 883.5400000000002 2222.5599999999995 C 761.5400000000002 2097.6999999999994 608.2400000000002 2074.1199999999994 527.7100000000003 2071.1799999999994 L 527.2600000000002 2071.1799999999994 L 455.0200000000002 2177.3199999999993 L 456.8400000000002 2177.0999999999995 L 457.4700000000002 2176.9799999999996 C 480.8300000000002 2172.6799999999994 689.6400000000002 2138.9799999999996 828.5700000000002 2280.8499999999995 C 949.6400000000001 2404.5399999999995 1049.63 2457.3199999999993 1162.92 2457.3199999999993 C 1207.27 2457.3199999999993 1254.52 2449.1799999999994 1307.3700000000001 2432.439999999999 C 1478.0700000000002 2378.689999999999 1459.46 2125.159999999999 1456.7600000000002 2096.2799999999993 Z" stroke-linecap="round" />
</g>
</svg>