<?xml version="1.0" encoding="UTF-8" standalone="no" ?>
<!DOCTYPE svg PUBLIC "-//W3C//DTD SVG 1.1//EN" "http://www.w3.org/Graphics/SVG/1.1/DTD/svg11.dtd">
<svg xmlns="http://www.w3.org/2000/svg" xmlns:xlink="http://www.w3.org/1999/xlink" version="1.1" width="80" height="80" viewBox="0 0 500 500" xml:space="preserve">
<desc>Created with Fabric.js 5.3.0</desc>
<defs>
</defs>
<g transform="matrix(0.1666666667 0 0 0.1666666667 144.9832649976 272.4788068814)" id="7j0UhPkPHnBVj3lCnZcpN"  >
<path style="stroke: none; stroke-width: 1; stroke-dasharray: none; stroke-linecap: butt; stroke-dashoffset: 0; stroke-linejoin: miter; stroke-miterlimit: 4; fill: rgb(255,255,255); fill-rule: nonzero; opacity: 1;"  transform=" translate(-872.1217488499, -1637.095)" d="M 1423.25 1752.55 C 1420.5 1718.37 1417.65 1689.47 1414.25 1661.61 C 1402.48 1553.77 1382.57 1418.53 1355.08 1259.6699999999998 C 1339.08 1168.58 1326.29 1101.8999999999999 1324.6 1093.4399999999998 C 1295.87 925.4399999999998 1179.2199999999998 816.8799999999999 1027.4299999999998 816.8799999999999 C 979.4247153980486 816.9246502661558 932.3472532689367 830.1075846403699 891.3 855 C 851.2823941086498 879.415183749236 818.0385749446265 913.4911299548081 794.6199999999999 954.1 C 771.1733451961977 913.4691978437951 737.8816376718326 879.3899889225618 697.8099999999998 855 C 656.7097734148216 830.1017572223018 609.5836052717946 816.9162509756507 561.5299999999999 816.87 C 489.04999999999995 816.87 420.75 846.3100000000001 369.21999999999997 899.76 C 317.68999999999994 953.2099999999999 289.45 1023.67 289.45 1098.38 C 289.39 1099.38 283.15 1212.0300000000002 286.63 1358.38 L 285.63 1612.5400000000002 L 387.56 1612.5400000000002 L 387.41 1611.5400000000002 C 354.04 1394.0600000000002 366.41 1130.5400000000002 367.91 1101.17 L 367.91 1100.41 C 367.91 989.1500000000001 454.75 898.6400000000001 561.49 898.6400000000001 C 668.23 898.6400000000001 755.33 989.1500000000001 755.33 1100.41 L 755.33 1260.5600000000002 L 833.83 1260.5600000000002 L 833.83 1100.49 C 833.83 989.23 920.6700000000001 898.72 1027.42 898.72 C 1140.88 898.72 1225.27 979.13 1247.64 1108.57 L 1248.3500000000001 1112.35 C 1257.2400000000002 1159.35 1266.2300000000002 1209.04 1275.0500000000002 1259.9499999999998 C 1287.16 1328.6699999999998 1317.2900000000002 1505.37 1335.5000000000002 1661.7899999999997 C 1339.8900000000003 1701.3599999999997 1342.9000000000003 1732.5199999999998 1344.9700000000003 1759.8799999999997 L 1378.7800000000002 2104.5599999999995 C 1378.7800000000002 2104.6399999999994 1378.7800000000002 2104.9799999999996 1378.8500000000001 2105.5599999999995 C 1381.5000000000002 2141.2599999999993 1389.41 2321.0399999999995 1284.5900000000001 2354.2599999999993 C 1149.93 2396.8499999999995 1046.14 2388.479999999999 883.5400000000002 2222.5599999999995 C 761.5400000000002 2097.6999999999994 608.2400000000002 2074.1199999999994 527.7100000000003 2071.1799999999994 L 527.2600000000002 2071.1799999999994 L 455.0200000000002 2177.3199999999993 L 456.8400000000002 2177.0999999999995 L 457.4700000000002 2176.9799999999996 C 480.8300000000002 2172.6799999999994 689.6400000000002 2138.9799999999996 828.5700000000002 2280.8499999999995 C 949.6400000000001 2404.5399999999995 1049.63 2457.3199999999993 1162.92 2457.3199999999993 C 1207.27 2457.3199999999993 1254.52 2449.1799999999994 1307.3700000000001 2432.439999999999 C 1478.0700000000002 2378.689999999999 1459.46 2125.159999999999 1456.7600000000002 2096.2799999999993 Z" stroke-linecap="round" />
</g>
<g transform="matrix(0.1666666667 0 0 0.1666666667 402.4621402408 202.9438068675)" id="ElrjAjMIDxLGCzryI207L"  >
<path style="stroke: none; stroke-width: 1; stroke-dasharray: none; stroke-linecap: butt; stroke-dashoffset: 0; stroke-linejoin: miter; stroke-miterlimit: 4; fill: rgb(255,255,255); fill-rule: nonzero; opacity: 1;"  transform=" translate(-2416.995, -1219.885)" d="M 2714.42 1622.74 L 2703.23 1103.21 C 2703.23 945.38 2574.82 817 2417 817 C 2259.18 817 2130.7799999999997 945.41 2130.7799999999997 1103.24 L 2119.5699999999997 1622.77 L 2208.5699999999997 1596.23 L 2208.5699999999997 1278.23 L 2625.4399999999996 1278.23 L 2625.4399999999996 1596.23 Z M 2208.55 1200.41 L 2208.55 1103.21 C 2208.55 988.27 2302.0600000000004 894.78 2416.9700000000003 894.78 C 2531.88 894.78 2625.42 988.27 2625.42 1103.21 L 2625.42 1200.41 Z" stroke-linecap="round" />
</g>
<g transform="matrix(0.1666666667 0 0 0.1666666667 287.9029735512 202.1696402007)" id="75Ol9zI0zI_XWLJY2rKm_"  >
<path style="stroke: none; stroke-width: 1; stroke-dasharray: none; stroke-linecap: butt; stroke-dashoffset: 0; stroke-linejoin: miter; stroke-miterlimit: 4; fill: rgb(255,255,255); fill-rule: nonzero; opacity: 1;"  transform=" translate(-1729.64, -1215.24)" d="M 1978.29 1514.62 C 1937.5000170566097 1530.4188325455987 1894.1226167481052 1538.476427974651 1850.3799999999999 1538.3799999999999 C 1677.8899999999999 1538.3799999999999 1535.07 1415.11 1513.8899999999999 1256.1899999999998 L 1855.35 1263.1899999999998 L 1853.5 1165.09 L 1513.15 1180.53 C 1531.41 1018.65 1675.67 892.18 1850.38 892.18 C 1882.6062040323452 892.1417215619686 1914.6875568467658 896.4916784819608 1945.7400000000002 905.1099999999999 L 1979.14 916.1099999999999 L 2006.8400000000001 843.9299999999998 L 2006.13 843.6599999999999 L 2016.91 814.7299999999999 L 1850.38 814.7299999999999 C 1620.66 814.7299999999999 1433.77 994.3999999999999 1433.77 1215.2399999999998 C 1433.77 1436.0799999999997 1620.6599999999999 1615.7499999999998 1850.38 1615.7499999999998 L 2025.5100000000002 1615.7499999999998 L 1980.2600000000002 1513.8299999999997 Z" stroke-linecap="round" />
</g>
</svg>